<?xml version="1.0" encoding="UTF-8"?>
<svg version="1.1" xmlns="http://www.w3.org/2000/svg" width="375" height="375">
<path d="M0 0 C0.64925446 -0.00540298 1.29850891 -0.01080597 1.96743774 -0.01637268 C4.10693374 -0.02884917 6.24508123 -0.01238035 8.38452148 0.00561523 C9.87377493 0.00546024 11.36302878 0.00397114 12.85227966 0.00120544 C15.97022376 -0.00017798 19.08770753 0.01237082 22.20556641 0.03515625 C26.20288783 0.06356599 30.19944594 0.06079642 34.19682407 0.04806614 C37.27063015 0.0411135 40.34425961 0.04889295 43.41804314 0.06132317 C44.89204163 0.06584002 46.36605906 0.06617242 47.84005928 0.06225777 C49.8989772 0.05934883 51.95684036 0.075834 54.015625 0.09765625 C55.18714615 0.10305923 56.3586673 0.10846222 57.56568909 0.11402893 C60.82679686 0.553403 61.48692331 0.95783889 63.44311523 3.50170898 C63.81801206 5.50591993 63.81801206 5.50591993 63.81784534 7.84490204 C63.82505189 8.73729096 63.83225843 9.62967988 63.83968335 10.54911089 C63.82862193 12.02122129 63.82862193 12.02122129 63.81733704 13.52307129 C63.82131144 14.56482372 63.82528585 15.60657615 63.82938069 16.67989683 C63.83904265 20.18769497 63.82716182 23.69509372 63.81542969 27.20288086 C63.81785636 29.71074067 63.82157446 32.21859952 63.82649231 34.72645569 C63.83494161 40.84123061 63.82937128 46.95585616 63.81722937 53.07062066 C63.8036226 60.18765906 63.80524605 67.30466925 63.8073627 74.42171735 C63.81055413 87.11816457 63.79887606 99.81455573 63.77929688 112.51098633 C63.76029206 124.83815214 63.75320913 137.16525223 63.75878906 149.49243164 C63.76484351 162.90764851 63.76467592 176.32283647 63.75330323 189.73805094 C63.75209591 191.16786098 63.75088992 192.59767103 63.74968529 194.02748108 C63.74908175 194.7310221 63.74847821 195.43456312 63.74785638 196.15942356 C63.74397302 201.12337045 63.74437247 206.08730659 63.74627113 211.05125427 C63.74861182 217.72917274 63.7400822 224.40699427 63.72421074 231.08489799 C63.71995527 233.54117418 63.71912576 235.99745895 63.72190094 238.45373726 C63.72510522 241.79603451 63.71608521 245.13807576 63.70381165 248.48034668 C63.70948063 249.95245708 63.70948063 249.95245708 63.71526414 251.45430708 C63.70651585 252.79289046 63.70651585 252.79289046 63.69759083 254.15851593 C63.69672405 254.93038002 63.69585727 255.70224412 63.69496423 256.49749804 C63.44311523 258.50170898 63.44311523 258.50170898 61.44311523 261.50170898 C58.55859375 261.88265991 58.55859375 261.88265991 54.82202148 261.88989258 C53.80227737 261.89777802 53.80227737 261.89777802 52.76193237 261.90582275 C50.50959451 261.91905146 48.25796057 261.91027516 46.00561523 261.90014648 C44.44384627 261.90216641 42.88207823 261.90507717 41.3203125 261.90884399 C38.04507478 261.91327122 34.77008229 261.90682372 31.49487305 261.89282227 C27.29116803 261.8757299 23.08803756 261.88556899 18.88435364 261.90353966 C15.65876923 261.91436691 12.43332162 261.91093609 9.20773315 261.90315628 C7.65754122 261.90115133 6.10733698 261.90362388 4.55715942 261.91059494 C2.39250672 261.91819237 0.22879163 261.90663078 -1.93579102 261.88989258 C-3.16885986 261.8875058 -4.40192871 261.88511902 -5.67236328 261.88265991 C-6.62425537 261.75694611 -7.57614746 261.6312323 -8.55688477 261.50170898 C-11.72293962 256.7526267 -10.89073692 251.63685302 -10.87255859 246.05004883 C-10.86939553 244.00865445 -10.89287604 241.9687058 -10.91821289 239.92749023 C-10.91885742 238.64229492 -10.91950195 237.35709961 -10.92016602 236.03295898 C-10.92314697 234.85282227 -10.92612793 233.67268555 -10.92919922 232.45678711 C-10.55688477 229.50170898 -10.55688477 229.50170898 -7.55688477 226.50170898 C7.29311523 226.00670898 7.29311523 226.00670898 22.44311523 225.50170898 C22.77311523 162.80170898 23.10311523 100.10170898 23.44311523 35.50170898 C13.21311523 35.50170898 2.98311523 35.50170898 -7.55688477 35.50170898 C-11.83659887 29.79542351 -11.03421454 24.94657287 -10.99438477 18.00170898 C-11.01436523 16.76549805 -11.0343457 15.52928711 -11.05493164 14.25561523 C-11.05428711 13.06838867 -11.05364258 11.88116211 -11.05297852 10.65795898 C-11.05483154 9.57321289 -11.05668457 8.4884668 -11.05859375 7.37084961 C-9.9416391 0.98328216 -5.90730139 0.00083732 0 0 Z " fill="#FEFEFE" transform="translate(256.556884765625,56.498291015625)"/>
<path d="M0 0 C0.97366264 -0.005476 0.97366264 -0.005476 1.96699524 -0.01106262 C4.11172688 -0.0191658 6.25570239 -0.00556093 8.40039062 0.0090332 C9.89107259 0.00955184 11.38175524 0.00903399 12.87243652 0.00752258 C15.99627903 0.0076123 19.11986339 0.01803943 22.24365234 0.03613281 C26.2487242 0.05882011 30.25341886 0.05936404 34.25853729 0.05261517 C37.33660232 0.04927437 40.41458129 0.05590734 43.49263 0.0657444 C44.96942189 0.06959478 46.44622335 0.07074528 47.92301941 0.06915855 C49.98662571 0.06878786 52.04974768 0.08140846 54.11328125 0.09765625 C55.87508728 0.10456734 55.87508728 0.10456734 57.67248535 0.11161804 C60.55664062 0.37231445 60.55664062 0.37231445 63.55664062 2.37231445 C63.92895508 5.41333008 63.92895508 5.41333008 63.91992188 9.27856445 C63.92066963 10.29932068 63.92066963 10.29932068 63.9214325 11.34069824 C63.91909145 12.77981485 63.90936092 14.21893551 63.89282227 15.65795898 C63.86923065 17.86389683 63.87226009 20.06862632 63.87890625 22.2746582 C63.83572313 33.09323195 63.83572313 33.09323195 61.55664062 35.37231445 C51.65664062 35.70231445 41.75664063 36.03231445 31.55664062 36.37231445 C31.55664062 98.74231445 31.55664062 161.11231445 31.55664062 225.37231445 C41.78664063 225.70231445 52.01664063 226.03231445 62.55664062 226.37231445 C65.50884846 232.27673013 64.88543153 237.92170951 64.86914062 244.43481445 C64.88525391 245.72709961 64.90136719 247.01938477 64.91796875 248.35083008 C64.91861328 249.58639648 64.91925781 250.82196289 64.91992188 252.0949707 C64.92290283 253.22684814 64.92588379 254.35872559 64.92895508 255.52490234 C64.55664062 258.37231445 64.55664062 258.37231445 63.44854736 260.02601624 C60.63032166 262.03149154 58.34645059 261.75374423 54.91381836 261.76049805 C54.2435965 261.765755 53.57337463 261.77101196 52.88284302 261.77642822 C50.66840281 261.78962797 48.45468183 261.78089187 46.24023438 261.77075195 C44.70231488 261.77277247 43.16439632 261.77568373 41.6264801 261.77944946 C38.40429558 261.78387256 35.1823606 261.77744156 31.96020508 261.76342773 C27.82490693 261.74632121 23.69019225 261.75618599 19.55491543 261.77414513 C16.37994467 261.78497126 13.2051129 261.78154233 10.03013802 261.77376175 C8.50506586 261.77175723 6.97998117 261.77422784 5.45492363 261.78120041 C3.32629695 261.7887976 1.19862378 261.77723737 -0.92993164 261.76049805 C-2.14221939 261.75811127 -3.35450714 261.75572449 -4.60353088 261.75326538 C-5.54067429 261.62755157 -6.47781769 261.50183777 -7.44335938 261.37231445 C-9.52450201 258.2506005 -9.69385635 257.57207932 -9.69783497 254.0291214 C-9.70366716 253.13673248 -9.70949936 252.24434356 -9.71550828 251.32491255 C-9.71172896 250.34350562 -9.70794963 249.36209868 -9.70405579 248.35095215 C-9.70788133 247.30919972 -9.71170688 246.26744729 -9.71564835 245.19412661 C-9.72600725 241.68641465 -9.72198072 238.1788655 -9.71801758 234.67114258 C-9.72236242 232.16328275 -9.72754479 229.65542426 -9.73350525 227.14756775 C-9.74553445 221.0328291 -9.74804381 214.91815097 -9.74570499 208.80340278 C-9.74392378 203.83495905 -9.74566721 198.86652868 -9.74992943 193.89808655 C-9.75052462 193.19164207 -9.75111981 192.48519759 -9.75173303 191.75734571 C-9.75294475 190.3223325 -9.75415888 188.88731929 -9.75537541 187.45230609 C-9.76625746 173.98807388 -9.76408518 160.5238667 -9.75799056 147.05963308 C-9.75281956 134.73338627 -9.76408048 122.40721845 -9.78308878 110.08098727 C-9.80244473 97.43264152 -9.81072721 84.78433317 -9.80696553 72.1359725 C-9.80505023 65.03154495 -9.80757303 57.92718466 -9.82168007 50.82276917 C-9.8348058 44.14482924 -9.83236448 37.46707356 -9.81926918 30.78912544 C-9.81689242 28.33284516 -9.81967708 25.87655388 -9.8278923 23.42028618 C-9.83826852 20.07789573 -9.83033271 16.73604702 -9.81758118 13.39367676 C-9.82495546 12.41226983 -9.83232975 11.43086289 -9.83992749 10.41971636 C-9.83272095 9.52732744 -9.82551441 8.63493852 -9.81808949 7.71550751 C-9.8181445 6.94364341 -9.81819952 6.17177932 -9.8182562 5.3765254 C-8.79874661 -0.07380691 -4.78194959 -0.00256261 0 0 Z " fill="#FEFEFE" transform="translate(64.443359375,56.627685546875)"/>
</svg>
